<?xml version="1.0" encoding="UTF-8"?><svg id="logosandtypes_com" xmlns="http://www.w3.org/2000/svg" viewBox="0 0 150 150"><defs><style>.cls-1{fill:#e0aa14;}.cls-2{fill:none;}</style></defs><path class="cls-2" d="M0,0H150V150H0V0Z"/><g><path class="cls-1" d="M75.24,14.69c35.66-.3,58.29,28.37,63.12,50.28-36.49,8.17-57.53-16.33-60.29-19.99-.72-.96-1.83-1.51-3.04-1.49-1.19,0-2.28,.57-3,1.53-15.08,19.37-34.9,24.46-34.9,24.46,0,0,20.18,2.62,38-15.78,6.55,8.91,32.45,22.9,64.14,13.63l2.19-.77-.38-2.3c-2.62-15.33-10.61-29.35-22.56-39.45-12.08-10.21-27.46-15.76-43.28-15.63C38.77,9.47,9.34,39.35,9.55,75.81,13.1,42.74,42.3,14.96,75.24,14.69"/><path class="cls-1" d="M75.76,135.78c-35.66,.3-58.29-28.37-63.12-50.28,36.49-8.17,57.53,16.35,60.29,19.99,.72,.96,1.83,1.49,3.04,1.49s2.28-.57,3-1.53c15.08-19.37,34.9-24.46,34.9-24.46,0,0-20.18-2.62-38,15.78-6.55-8.91-32.45-22.9-64.14-13.63l-2.19,.77,.38,2.3c2.62,15.33,10.61,29.35,22.56,39.45,12.08,10.21,27.46,15.76,43.28,15.63,36.47-.3,65.91-30.18,65.69-66.63-3.55,33.07-32.73,60.84-65.69,61.12"/></g></svg>