<svg id="Layer_1" data-name="Layer 1" xmlns="http://www.w3.org/2000/svg" viewBox="0 0 350.45 106.62"><defs><style>.cls-1{fill:#003F3C;}</style></defs><path class="cls-1" d="M337.67,436.17a4.8,4.8,0,0,1-4-2.08c-8.09-11.69-20.11-18.2-35.73-19.35a51.55,51.55,0,0,0-40.53,15.84,4.81,4.81,0,1,1-7-6.58,60.63,60.63,0,0,1,48.27-18.86c18.66,1.37,33.11,9.27,42.94,23.47a4.82,4.82,0,0,1-4,7.56Z" transform="translate(-249.12 -404.98)"/><path class="cls-1" d="M339.27,437.77a4.81,4.81,0,0,1-3.68-7.92c10.57-12.52,30.09-21.36,47.49-21.5,17.82-.21,32.77,6.17,43.29,18.23a4.82,4.82,0,0,1-7.27,6.33c-8.73-10-20.83-15-35.94-14.93-14.56.12-31.47,7.72-40.21,18.08A4.79,4.79,0,0,1,339.27,437.77Z" transform="translate(-249.12 -404.98)"/><path class="cls-1" d="M510.13,441.63a4.79,4.79,0,0,1-4-2.07,50.45,50.45,0,0,0-78.31-5.77,4.81,4.81,0,1,1-7-6.58,60.07,60.07,0,0,1,93.26,6.87,4.81,4.81,0,0,1-4,7.55Z" transform="translate(-249.12 -404.98)"/><path class="cls-1" d="M511,441a4.81,4.81,0,0,1-3.68-7.92c10.91-12.92,29-21.36,46.16-21.5a59.52,59.52,0,0,1,44.89,20.22,4.82,4.82,0,0,1-7.26,6.33,49.9,49.9,0,0,0-37.18-16.92h-.37c-14.23.11-29.85,7.38-38.88,18.08A4.79,4.79,0,0,1,511,441Z" transform="translate(-249.12 -404.98)"/><path class="cls-1" d="M342,473.08a4.82,4.82,0,0,1-4.08-2.24c-7.33-11.59-18.18-18-32.25-19.18-13.35-1.08-27.33,4.93-36.52,15.68a4.82,4.82,0,0,1-7.32-6.26c11.33-13.25,28-20.36,44.61-19,17.25,1.39,30.58,9.34,39.62,23.63a4.81,4.81,0,0,1-4.06,7.39Z" transform="translate(-249.12 -404.98)"/><path class="cls-1" d="M343.41,474.69a4.81,4.81,0,0,1-3.81-7.76c9.72-12.61,27.75-21.53,43.83-21.66H384c16.24,0,29.88,6.35,39.46,18.39a4.81,4.81,0,1,1-7.53,6c-7.89-9.91-18.78-14.93-32.39-14.76-13.11.11-28.37,7.64-36.29,17.91A4.79,4.79,0,0,1,343.41,474.69Z" transform="translate(-249.12 -404.98)"/><path class="cls-1" d="M499.51,478.55a4.81,4.81,0,0,1-4.07-2.24c-7.68-12.15-20.76-20.36-34.13-21.44S434,459.8,424.79,470.55a4.82,4.82,0,0,1-7.32-6.26c11.33-13.25,28-20.34,44.61-19s32.09,11,41.5,25.89a4.81,4.81,0,0,1-1.5,6.64A4.76,4.76,0,0,1,499.51,478.55Z" transform="translate(-249.12 -404.98)"/><path class="cls-1" d="M500.31,477.9a4.82,4.82,0,0,1-3.81-7.76c10-13,26.77-21.53,42.62-21.66h.42c15.56,0,30.87,7.59,41.05,20.38a4.82,4.82,0,0,1-7.54,6c-8.36-10.51-20.86-16.75-33.51-16.75h-.34c-12.8.11-26.9,7.31-35.07,17.91A4.81,4.81,0,0,1,500.31,477.9Z" transform="translate(-249.12 -404.98)"/><path class="cls-1" d="M335.26,511.6a5.1,5.1,0,0,1-.87-.07,4.83,4.83,0,0,1-3.28-2.3c-8.82-15-29.39-23.33-46.83-18.91a4.82,4.82,0,1,1-2.36-9.34c19.92-5,42.36,3,54.47,18.87,13.88-10.18,28.58-16.13,42.76-17.26,19.33-1.57,38,6.35,47.54,20.15a4.81,4.81,0,1,1-7.91,5.48c-7.64-11-22.89-17.31-38.86-16-13.67,1.1-28.07,7.45-41.64,18.36A4.85,4.85,0,0,1,335.26,511.6Z" transform="translate(-249.12 -404.98)"/><path class="cls-1" d="M510.21,511.6a4.8,4.8,0,0,1-3-1.06c-13.58-10.91-28-17.26-41.65-18.36-16-1.27-31.22,5-38.86,16a4.81,4.81,0,1,1-7.91-5.48c9.55-13.8,28.21-21.72,47.54-20.15,14.18,1.13,28.88,7.08,42.76,17.26C521.19,484,543.63,475.94,563.56,481a4.82,4.82,0,0,1-2.37,9.34c-17.44-4.42-38,3.89-46.83,18.91a4.83,4.83,0,0,1-3.28,2.3A5.1,5.1,0,0,1,510.21,511.6Z" transform="translate(-249.12 -404.98)"/></svg>